<mxfile host="app.diagrams.net" modified="2021-04-19T03:40:01.629Z" agent="5.0 (Macintosh; Intel Mac OS X 10_15_6) AppleWebKit/537.36 (KHTML, like Gecko) Chrome/89.0.4389.82 Safari/537.36" etag="CGa5XFeBwdaZBwZe5Sai" version="14.6.1" type="github">
  <diagram id="AZOf61jDgbsZOh8h0cvU" name="第 1 页">
    <mxGraphModel dx="2066" dy="1080" grid="1" gridSize="10" guides="1" tooltips="1" connect="1" arrows="1" fold="1" page="1" pageScale="1" pageWidth="827" pageHeight="1169" math="0" shadow="0">
      <root>
        <mxCell id="0" />
        <mxCell id="1" parent="0" />
        <mxCell id="eRNwVtKWeMuUZ3jzu04p-1" value="&lt;h1&gt;支付接口&lt;/h1&gt;&lt;p&gt;APP需提供发起收银台接口&lt;/p&gt;" style="text;html=1;strokeColor=none;fillColor=none;spacing=5;spacingTop=-20;whiteSpace=wrap;overflow=hidden;rounded=0;" vertex="1" parent="1">
          <mxGeometry x="30" y="20" width="190" height="120" as="geometry" />
        </mxCell>
        <mxCell id="eRNwVtKWeMuUZ3jzu04p-6" style="rounded=0;orthogonalLoop=1;jettySize=auto;html=1;exitX=1;exitY=1;exitDx=0;exitDy=0;exitPerimeter=0;fontSize=16;" edge="1" parent="1" source="eRNwVtKWeMuUZ3jzu04p-2" target="eRNwVtKWeMuUZ3jzu04p-5">
          <mxGeometry relative="1" as="geometry" />
        </mxCell>
        <mxCell id="eRNwVtKWeMuUZ3jzu04p-7" value="请求支付" style="edgeLabel;html=1;align=center;verticalAlign=middle;resizable=0;points=[];fontSize=16;" vertex="1" connectable="0" parent="eRNwVtKWeMuUZ3jzu04p-6">
          <mxGeometry x="0.0109" y="-2" relative="1" as="geometry">
            <mxPoint as="offset" />
          </mxGeometry>
        </mxCell>
        <mxCell id="eRNwVtKWeMuUZ3jzu04p-12" style="edgeStyle=none;rounded=0;orthogonalLoop=1;jettySize=auto;html=1;exitX=0;exitY=1;exitDx=0;exitDy=0;exitPerimeter=0;entryX=0.5;entryY=0;entryDx=0;entryDy=0;fontSize=16;" edge="1" parent="1" source="eRNwVtKWeMuUZ3jzu04p-2" target="eRNwVtKWeMuUZ3jzu04p-9">
          <mxGeometry relative="1" as="geometry" />
        </mxCell>
        <mxCell id="eRNwVtKWeMuUZ3jzu04p-13" value="进行支付" style="edgeLabel;html=1;align=center;verticalAlign=middle;resizable=0;points=[];fontSize=16;" vertex="1" connectable="0" parent="eRNwVtKWeMuUZ3jzu04p-12">
          <mxGeometry x="-0.0102" relative="1" as="geometry">
            <mxPoint as="offset" />
          </mxGeometry>
        </mxCell>
        <mxCell id="eRNwVtKWeMuUZ3jzu04p-2" value="用户" style="shape=umlActor;verticalLabelPosition=bottom;verticalAlign=top;html=1;outlineConnect=0;" vertex="1" parent="1">
          <mxGeometry x="384" y="70" width="30" height="60" as="geometry" />
        </mxCell>
        <mxCell id="eRNwVtKWeMuUZ3jzu04p-3" value="" style="endArrow=none;dashed=1;html=1;" edge="1" parent="1">
          <mxGeometry width="50" height="50" relative="1" as="geometry">
            <mxPoint x="44" y="280" as="sourcePoint" />
            <mxPoint x="784" y="280" as="targetPoint" />
          </mxGeometry>
        </mxCell>
        <mxCell id="eRNwVtKWeMuUZ3jzu04p-4" value="APP" style="text;html=1;strokeColor=none;fillColor=none;align=center;verticalAlign=middle;whiteSpace=wrap;rounded=0;fontSize=16;" vertex="1" parent="1">
          <mxGeometry x="50" y="300" width="60" height="30" as="geometry" />
        </mxCell>
        <mxCell id="eRNwVtKWeMuUZ3jzu04p-10" value="收银接口" style="edgeStyle=none;rounded=0;orthogonalLoop=1;jettySize=auto;html=1;exitX=0;exitY=0.5;exitDx=0;exitDy=0;fontSize=16;" edge="1" parent="1" source="eRNwVtKWeMuUZ3jzu04p-5" target="eRNwVtKWeMuUZ3jzu04p-9">
          <mxGeometry relative="1" as="geometry" />
        </mxCell>
        <mxCell id="eRNwVtKWeMuUZ3jzu04p-5" value="分销商城" style="ellipse;whiteSpace=wrap;html=1;fontSize=16;" vertex="1" parent="1">
          <mxGeometry x="530" y="350" width="120" height="80" as="geometry" />
        </mxCell>
        <mxCell id="eRNwVtKWeMuUZ3jzu04p-8" value="" style="endArrow=none;dashed=1;html=1;" edge="1" parent="1">
          <mxGeometry width="50" height="50" relative="1" as="geometry">
            <mxPoint x="44" y="550" as="sourcePoint" />
            <mxPoint x="784" y="550" as="targetPoint" />
          </mxGeometry>
        </mxCell>
        <mxCell id="eRNwVtKWeMuUZ3jzu04p-19" style="edgeStyle=orthogonalEdgeStyle;rounded=0;orthogonalLoop=1;jettySize=auto;html=1;exitX=0.5;exitY=1;exitDx=0;exitDy=0;fontSize=16;" edge="1" parent="1" source="eRNwVtKWeMuUZ3jzu04p-9" target="eRNwVtKWeMuUZ3jzu04p-17">
          <mxGeometry relative="1" as="geometry" />
        </mxCell>
        <mxCell id="eRNwVtKWeMuUZ3jzu04p-20" value="收银数据传输" style="edgeLabel;html=1;align=center;verticalAlign=middle;resizable=0;points=[];fontSize=16;" vertex="1" connectable="0" parent="eRNwVtKWeMuUZ3jzu04p-19">
          <mxGeometry x="0.2231" relative="1" as="geometry">
            <mxPoint as="offset" />
          </mxGeometry>
        </mxCell>
        <mxCell id="eRNwVtKWeMuUZ3jzu04p-9" value="收银台" style="ellipse;whiteSpace=wrap;html=1;fontSize=16;" vertex="1" parent="1">
          <mxGeometry x="160" y="350" width="120" height="80" as="geometry" />
        </mxCell>
        <mxCell id="eRNwVtKWeMuUZ3jzu04p-14" value="" style="endArrow=none;dashed=1;html=1;" edge="1" parent="1">
          <mxGeometry width="50" height="50" relative="1" as="geometry">
            <mxPoint x="44" y="630" as="sourcePoint" />
            <mxPoint x="784" y="630" as="targetPoint" />
          </mxGeometry>
        </mxCell>
        <mxCell id="eRNwVtKWeMuUZ3jzu04p-15" value="" style="endArrow=none;dashed=1;html=1;" edge="1" parent="1">
          <mxGeometry width="50" height="50" relative="1" as="geometry">
            <mxPoint x="44" y="820" as="sourcePoint" />
            <mxPoint x="784" y="820" as="targetPoint" />
          </mxGeometry>
        </mxCell>
        <mxCell id="eRNwVtKWeMuUZ3jzu04p-16" value="API" style="text;html=1;strokeColor=none;fillColor=none;align=center;verticalAlign=middle;whiteSpace=wrap;rounded=0;fontSize=16;" vertex="1" parent="1">
          <mxGeometry x="50" y="650" width="60" height="30" as="geometry" />
        </mxCell>
        <mxCell id="eRNwVtKWeMuUZ3jzu04p-18" style="edgeStyle=orthogonalEdgeStyle;rounded=0;orthogonalLoop=1;jettySize=auto;html=1;exitX=1;exitY=0.5;exitDx=0;exitDy=0;entryX=0.5;entryY=1;entryDx=0;entryDy=0;fontSize=16;" edge="1" parent="1" source="eRNwVtKWeMuUZ3jzu04p-17" target="eRNwVtKWeMuUZ3jzu04p-5">
          <mxGeometry relative="1" as="geometry" />
        </mxCell>
        <mxCell id="eRNwVtKWeMuUZ3jzu04p-21" value="异步通知支付完成（带订单号）" style="edgeLabel;html=1;align=center;verticalAlign=middle;resizable=0;points=[];fontSize=16;" vertex="1" connectable="0" parent="eRNwVtKWeMuUZ3jzu04p-18">
          <mxGeometry x="0.4885" relative="1" as="geometry">
            <mxPoint as="offset" />
          </mxGeometry>
        </mxCell>
        <mxCell id="eRNwVtKWeMuUZ3jzu04p-17" value="收银服务" style="ellipse;whiteSpace=wrap;html=1;fontSize=16;" vertex="1" parent="1">
          <mxGeometry x="160" y="690" width="120" height="80" as="geometry" />
        </mxCell>
        <mxCell id="eRNwVtKWeMuUZ3jzu04p-24" value="商城前端" style="shape=umlLifeline;perimeter=lifelinePerimeter;whiteSpace=wrap;html=1;container=1;collapsible=0;recursiveResize=0;outlineConnect=0;fontSize=16;" vertex="1" parent="1">
          <mxGeometry x="130" y="1020" width="100" height="580" as="geometry" />
        </mxCell>
        <mxCell id="eRNwVtKWeMuUZ3jzu04p-29" value="" style="html=1;points=[];perimeter=orthogonalPerimeter;fontSize=16;" vertex="1" parent="eRNwVtKWeMuUZ3jzu04p-24">
          <mxGeometry x="45" y="80" width="10" height="300" as="geometry" />
        </mxCell>
        <mxCell id="eRNwVtKWeMuUZ3jzu04p-25" value="第三方APP" style="shape=umlLifeline;perimeter=lifelinePerimeter;whiteSpace=wrap;html=1;container=1;collapsible=0;recursiveResize=0;outlineConnect=0;fontSize=16;" vertex="1" parent="1">
          <mxGeometry x="310" y="1020" width="100" height="580" as="geometry" />
        </mxCell>
        <mxCell id="eRNwVtKWeMuUZ3jzu04p-37" value="" style="html=1;points=[];perimeter=orthogonalPerimeter;fontSize=16;" vertex="1" parent="eRNwVtKWeMuUZ3jzu04p-25">
          <mxGeometry x="45" y="230" width="10" height="140" as="geometry" />
        </mxCell>
        <mxCell id="eRNwVtKWeMuUZ3jzu04p-42" value="收银完成" style="html=1;verticalAlign=bottom;startArrow=oval;startFill=1;endArrow=block;startSize=8;fontSize=16;" edge="1" parent="eRNwVtKWeMuUZ3jzu04p-25" target="eRNwVtKWeMuUZ3jzu04p-29">
          <mxGeometry width="60" relative="1" as="geometry">
            <mxPoint x="50" y="360" as="sourcePoint" />
            <mxPoint x="-120" y="358" as="targetPoint" />
          </mxGeometry>
        </mxCell>
        <mxCell id="eRNwVtKWeMuUZ3jzu04p-26" value="商城API" style="shape=umlLifeline;perimeter=lifelinePerimeter;whiteSpace=wrap;html=1;container=1;collapsible=0;recursiveResize=0;outlineConnect=0;fontSize=16;" vertex="1" parent="1">
          <mxGeometry x="500" y="1020" width="100" height="580" as="geometry" />
        </mxCell>
        <mxCell id="eRNwVtKWeMuUZ3jzu04p-33" value="" style="html=1;points=[];perimeter=orthogonalPerimeter;fontSize=16;" vertex="1" parent="eRNwVtKWeMuUZ3jzu04p-26">
          <mxGeometry x="45" y="120" width="10" height="80" as="geometry" />
        </mxCell>
        <mxCell id="eRNwVtKWeMuUZ3jzu04p-35" value="返回签名" style="html=1;verticalAlign=bottom;startArrow=oval;startFill=1;endArrow=block;startSize=8;fontSize=16;" edge="1" parent="eRNwVtKWeMuUZ3jzu04p-26" target="eRNwVtKWeMuUZ3jzu04p-24">
          <mxGeometry width="60" relative="1" as="geometry">
            <mxPoint x="50" y="190" as="sourcePoint" />
            <mxPoint x="110" y="190" as="targetPoint" />
          </mxGeometry>
        </mxCell>
        <mxCell id="eRNwVtKWeMuUZ3jzu04p-43" value="" style="html=1;points=[];perimeter=orthogonalPerimeter;fontSize=16;" vertex="1" parent="eRNwVtKWeMuUZ3jzu04p-26">
          <mxGeometry x="45" y="360" width="10" height="80" as="geometry" />
        </mxCell>
        <mxCell id="eRNwVtKWeMuUZ3jzu04p-27" value="第三方API" style="shape=umlLifeline;perimeter=lifelinePerimeter;whiteSpace=wrap;html=1;container=1;collapsible=0;recursiveResize=0;outlineConnect=0;fontSize=16;" vertex="1" parent="1">
          <mxGeometry x="690" y="1020" width="100" height="580" as="geometry" />
        </mxCell>
        <mxCell id="eRNwVtKWeMuUZ3jzu04p-39" value="" style="html=1;points=[];perimeter=orthogonalPerimeter;fontSize=16;" vertex="1" parent="eRNwVtKWeMuUZ3jzu04p-27">
          <mxGeometry x="45" y="250" width="10" height="140" as="geometry" />
        </mxCell>
        <mxCell id="eRNwVtKWeMuUZ3jzu04p-41" value="支付数据返回" style="html=1;verticalAlign=bottom;startArrow=oval;startFill=1;endArrow=block;startSize=8;fontSize=16;" edge="1" parent="eRNwVtKWeMuUZ3jzu04p-27" target="eRNwVtKWeMuUZ3jzu04p-25">
          <mxGeometry width="60" relative="1" as="geometry">
            <mxPoint x="50" y="320" as="sourcePoint" />
            <mxPoint x="-200" y="330" as="targetPoint" />
          </mxGeometry>
        </mxCell>
        <mxCell id="eRNwVtKWeMuUZ3jzu04p-28" value="用户" style="shape=umlActor;verticalLabelPosition=bottom;verticalAlign=top;html=1;fontSize=16;" vertex="1" parent="1">
          <mxGeometry x="30" y="1080" width="30" height="60" as="geometry" />
        </mxCell>
        <mxCell id="eRNwVtKWeMuUZ3jzu04p-30" value="发起支付" style="html=1;verticalAlign=bottom;startArrow=oval;endArrow=block;startSize=8;fontSize=16;" edge="1" target="eRNwVtKWeMuUZ3jzu04p-29" parent="1" source="eRNwVtKWeMuUZ3jzu04p-28">
          <mxGeometry relative="1" as="geometry">
            <mxPoint x="115" y="1100" as="sourcePoint" />
          </mxGeometry>
        </mxCell>
        <mxCell id="eRNwVtKWeMuUZ3jzu04p-34" value="请求签名" style="html=1;verticalAlign=bottom;startArrow=oval;endArrow=block;startSize=8;fontSize=16;" edge="1" target="eRNwVtKWeMuUZ3jzu04p-33" parent="1" source="eRNwVtKWeMuUZ3jzu04p-24">
          <mxGeometry relative="1" as="geometry">
            <mxPoint x="485" y="1140" as="sourcePoint" />
            <Array as="points">
              <mxPoint x="280" y="1150" />
            </Array>
          </mxGeometry>
        </mxCell>
        <mxCell id="eRNwVtKWeMuUZ3jzu04p-38" value="调起收银台" style="html=1;verticalAlign=bottom;startArrow=oval;endArrow=block;startSize=8;fontSize=16;" edge="1" target="eRNwVtKWeMuUZ3jzu04p-37" parent="1" source="eRNwVtKWeMuUZ3jzu04p-29">
          <mxGeometry relative="1" as="geometry">
            <mxPoint x="295" y="1250" as="sourcePoint" />
            <Array as="points">
              <mxPoint x="270" y="1260" />
            </Array>
          </mxGeometry>
        </mxCell>
        <mxCell id="eRNwVtKWeMuUZ3jzu04p-40" value="支付数据交互" style="html=1;verticalAlign=bottom;startArrow=oval;endArrow=block;startSize=8;fontSize=16;exitX=1;exitY=0.213;exitDx=0;exitDy=0;exitPerimeter=0;" edge="1" target="eRNwVtKWeMuUZ3jzu04p-39" parent="1" source="eRNwVtKWeMuUZ3jzu04p-37">
          <mxGeometry relative="1" as="geometry">
            <mxPoint x="675" y="1270" as="sourcePoint" />
          </mxGeometry>
        </mxCell>
        <mxCell id="eRNwVtKWeMuUZ3jzu04p-44" value="异步通知" style="html=1;verticalAlign=bottom;startArrow=oval;endArrow=block;startSize=8;fontSize=16;" edge="1" target="eRNwVtKWeMuUZ3jzu04p-43" parent="1" source="eRNwVtKWeMuUZ3jzu04p-27">
          <mxGeometry relative="1" as="geometry">
            <mxPoint x="485" y="1380" as="sourcePoint" />
          </mxGeometry>
        </mxCell>
        <mxCell id="eRNwVtKWeMuUZ3jzu04p-47" value="修改支付状态" style="edgeStyle=orthogonalEdgeStyle;html=1;align=left;spacingLeft=2;endArrow=block;rounded=0;fontSize=16;" edge="1" target="eRNwVtKWeMuUZ3jzu04p-43" parent="1">
          <mxGeometry relative="1" as="geometry">
            <mxPoint x="550" y="1410" as="sourcePoint" />
            <Array as="points">
              <mxPoint x="600" y="1410" />
              <mxPoint x="600" y="1450" />
            </Array>
          </mxGeometry>
        </mxCell>
      </root>
    </mxGraphModel>
  </diagram>
</mxfile>
